PathFileType	4	(X/Y/Z)	 control3min.trc
DataRate	CameraRate	NumFrames	NumMarkers	Units	OrigDataRate	OrigDataStartFrame	OrigNumFrames
200	200	7	39	m	200	1	1000
Frame#	Time	C7			LSH			RSH			MAN			RASI			LASI			HIPR			HIPL			RPSI			LPSI			COX			RTHI1			RTHI2			RTHI3			RTHI4			RLKN			RMKN			RSHA1			RSHA2			RSHA3			RSHA4			RHEEL			RMET5			RMET1			RTOE			LTHI1			LTHI2			LTHI3			LTHI4			LLKN			LMKN			LSHA1			LSHA2			LSHA3			LSHA4			LHEEL			LMET5			LMET1			LTOE			
		X1	Y1	Z1	X2	Y2	Z2	X3	Y3	Z3	X4	Y4	Z4	X5	Y5	Z5	X6	Y6	Z6	X7	Y7	Z7	X8	Y8	Z8	X9	Y9	Z9	X10	Y10	Z10	X11	Y11	Z11	X12	Y12	Z12	X13	Y13	Z13	X14	Y14	Z14	X15	Y15	Z15	X16	Y16	Z16	X17	Y17	Z17	X18	Y18	Z18	X19	Y19	Z19	X20	Y20	Z20	X21	Y21	Z21	X22	Y22	Z22	X23	Y23	Z23	X24	Y24	Z24	X25	Y25	Z25	X26	Y26	Z26	X27	Y27	Z27	X28	Y28	Z28	X29	Y29	Z29	X30	Y30	Z30	X31	Y31	Z31	X32	Y32	Z32	X33	Y33	Z33	X34	Y34	Z34	X35	Y35	Z35	X36	Y36	Z36	X37	Y37	Z37	X38	Y38	Z38	X39	Y39	Z39	
1	0.0050	-0.292981	1.526014	-0.514915	-0.250554	1.508643	-0.702801	-0.251428	1.518553	-0.332795	-0.139382	1.483488	-0.523377	-0.145755	1.005702	-0.400458	-0.155665	1.012634	-0.634399	-0.214526	1.084533	-0.346082	-0.221438	1.094075	-0.676964	-0.325861	1.067014	-0.470750	-0.326565	1.072697	-0.548480	-0.327545	1.065980	-0.508864	-0.240980	0.831727	-0.321114	-0.228150	0.774169	-0.314533	-0.163930	0.786237	-0.315004	-0.170146	0.846887	-0.322393	-0.223896	0.500203	-0.340943	-0.197468	0.492900	-0.463036	-0.297036	0.353475	-0.328420	-0.319406	0.316905	-0.340290	-0.263556	0.292542	-0.343222	-0.246029	0.328568	-0.337386	-0.394114	0.131540	-0.417526	-0.251074	0.037558	-0.349149	-0.202093	0.047915	-0.419229	-0.175264	0.037621	-0.415522	-0.267317	0.810943	-0.703511	-0.243660	0.754910	-0.713479	-0.183831	0.776147	-0.725361	-0.199005	0.834343	-0.719010	-0.228613	0.521244	-0.698058	-0.202789	0.506673	-0.576529	-0.339095	0.318146	-0.691878	-0.354938	0.282045	-0.681691	-0.297489	0.260451	-0.695438	-0.288851	0.302512	-0.704010	-0.413197	0.129155	-0.615651	-0.274559	0.040945	-0.698454	-0.224143	0.050645	-0.632293	-0.196358	0.037137	-0.637793	
2	0.0100	-0.293192	1.530182	-0.514962	-0.250589	1.513462	-0.702574	-0.251419	1.523144	-0.333024	-0.139785	1.488320	-0.523357	-0.145010	1.010207	-0.400637	-0.155129	1.017357	-0.634641	-0.213470	1.089710	-0.346187	-0.220647	1.099281	-0.676960	-0.324756	1.071922	-0.470561	-0.325733	1.077570	-0.548289	-0.326574	1.070908	-0.508651	-0.241162	0.836335	-0.321087	-0.228679	0.778738	-0.314516	-0.164473	0.790534	-0.314719	-0.170260	0.851229	-0.322137	-0.226134	0.504600	-0.340733	-0.199327	0.496998	-0.462983	-0.297945	0.357025	-0.327811	-0.319666	0.320787	-0.339036	-0.263713	0.296406	-0.342310	-0.246677	0.332668	-0.336454	-0.392111	0.134712	-0.416244	-0.250468	0.037921	-0.348982	-0.201961	0.048102	-0.418957	-0.175358	0.037705	-0.415340	-0.267797	0.816195	-0.703761	-0.244434	0.759964	-0.713400	-0.184543	0.780910	-0.725596	-0.199422	0.839163	-0.719215	-0.230953	0.525745	-0.697983	-0.204565	0.510914	-0.576470	-0.339306	0.321422	-0.692260	-0.354753	0.285161	-0.682310	-0.297211	0.264259	-0.696593	-0.289014	0.306478	-0.704899	-0.411042	0.132435	-0.616899	-0.274108	0.041227	-0.698738	-0.223701	0.051148	-0.632838	-0.196291	0.037220	-0.638095	
3	0.0150	-0.293240	1.534076	-0.514909	-0.250567	1.518077	-0.702323	-0.251317	1.527492	-0.333212	-0.140103	1.492952	-0.523317	-0.144330	1.014535	-0.400789	-0.154650	1.021887	-0.634908	-0.212642	1.094672	-0.346341	-0.219962	1.104379	-0.676999	-0.323734	1.076636	-0.470394	-0.324980	1.082279	-0.548145	-0.325687	1.075718	-0.508506	-0.241480	0.840825	-0.321257	-0.229282	0.783095	-0.314559	-0.165085	0.794641	-0.314440	-0.170475	0.855374	-0.321874	-0.228280	0.508828	-0.340587	-0.201018	0.500924	-0.462978	-0.298725	0.360416	-0.327368	-0.319979	0.323974	-0.338372	-0.263765	0.300164	-0.341462	-0.247222	0.336603	-0.335650	-0.390080	0.137719	-0.414953	-0.249807	0.038429	-0.348889	-0.201753	0.048440	-0.418678	-0.175379	0.037836	-0.414978	-0.268433	0.821238	-0.703969	-0.245306	0.764773	-0.713235	-0.185346	0.785458	-0.725739	-0.199956	0.843784	-0.719387	-0.233083	0.530031	-0.697841	-0.206261	0.515007	-0.576257	-0.339418	0.324540	-0.692623	-0.354522	0.288060	-0.682882	-0.296841	0.267912	-0.697718	-0.289066	0.310231	-0.705744	-0.408918	0.135643	-0.618306	-0.273592	0.041665	-0.699010	-0.223166	0.051752	-0.633417	-0.196198	0.037328	-0.638555	
4	0.0200	-0.293339	1.538019	-0.514872	-0.250543	1.522632	-0.702079	-0.251203	1.531780	-0.333397	-0.140418	1.497504	-0.523280	-0.143664	1.018796	-0.400931	-0.154188	1.026350	-0.635182	-0.211866	1.099561	-0.346506	-0.219313	1.109413	-0.677039	-0.322743	1.081290	-0.470247	-0.324246	1.086934	-0.548008	-0.324813	1.080472	-0.508373	-0.241786	0.845223	-0.321387	-0.229888	0.787382	-0.314609	-0.165697	0.798684	-0.314167	-0.170701	0.859454	-0.321618	-0.230376	0.512994	-0.340462	-0.202655	0.504799	-0.462984	-0.299467	0.363768	-0.326956	-0.320225	0.327232	-0.337600	-0.263789	0.303869	-0.340637	-0.247732	0.340492	-0.334870	-0.388049	0.140731	-0.413716	-0.249122	0.038992	-0.348806	-0.201536	0.048788	-0.418375	-0.175396	0.037989	-0.414541	-0.269085	0.826182	-0.704098	-0.246195	0.769506	-0.713051	-0.186178	0.789941	-0.725873	-0.200521	0.848334	-0.719530	-0.235148	0.534246	-0.697685	-0.207928	0.519035	-0.576023	-0.339485	0.327605	-0.692990	-0.354209	0.290959	-0.683460	-0.296426	0.271502	-0.698815	-0.289069	0.313926	-0.706565	-0.406822	0.138812	-0.619707	-0.273048	0.042170	-0.699278	-0.222623	0.052366	-0.634021	-0.196097	0.037450	-0.639073	
5	0.0250	-0.293413	1.541846	-0.514812	-0.250484	1.527001	-0.701828	-0.251028	1.535856	-0.333553	-0.140687	1.501852	-0.523239	-0.143051	1.022882	-0.401051	-0.153770	1.030632	-0.635474	-0.211261	1.104244	-0.346705	-0.218757	1.114291	-0.677096	-0.321828	1.085766	-0.470138	-0.323562	1.091427	-0.547916	-0.323985	1.085076	-0.508292	-0.242140	0.849457	-0.321574	-0.230526	0.791481	-0.314698	-0.166329	0.802543	-0.313904	-0.170985	0.863352	-0.321368	-0.232352	0.516995	-0.340396	-0.204143	0.508520	-0.463031	-0.300098	0.366972	-0.326649	-0.320414	0.330100	-0.337061	-0.263727	0.307439	-0.339873	-0.248129	0.344226	-0.334190	-0.386025	0.143662	-0.412549	-0.248388	0.039703	-0.348760	-0.201270	0.049225	-0.418021	-0.175376	0.038200	-0.413912	-0.269818	0.830893	-0.704091	-0.247142	0.774019	-0.712800	-0.187081	0.794235	-0.725951	-0.201177	0.852694	-0.719617	-0.237021	0.538257	-0.697482	-0.209510	0.522894	-0.575696	-0.339442	0.330530	-0.693356	-0.353796	0.293717	-0.684034	-0.295896	0.274918	-0.699847	-0.288954	0.317444	-0.707327	-0.404791	0.141883	-0.621157	-0.272432	0.042850	-0.699540	-0.222024	0.053053	-0.634677	-0.195961	0.037614	-0.639755	
6	0.0300	-0.293470	1.545487	-0.514745	-0.250439	1.531183	-0.701592	-0.250822	1.539745	-0.333691	-0.140957	1.505972	-0.523211	-0.142481	1.026762	-0.401146	-0.153389	1.034717	-0.635779	-0.210796	1.108705	-0.346926	-0.218293	1.118965	-0.677147	-0.320990	1.090066	-0.470085	-0.322941	1.095752	-0.547849	-0.323214	1.089500	-0.508253	-0.242501	0.853465	-0.321780	-0.231166	0.795402	-0.314827	-0.166960	0.806231	-0.313666	-0.171294	0.867075	-0.321139	-0.234193	0.520818	-0.340388	-0.205485	0.512084	-0.463110	-0.300623	0.370059	-0.326425	-0.320496	0.332926	-0.336598	-0.263588	0.310863	-0.339170	-0.248376	0.347828	-0.333613	-0.384033	0.146575	-0.411532	-0.247603	0.040576	-0.348731	-0.200970	0.049745	-0.417596	-0.175339	0.038507	-0.413084	-0.270580	0.835321	-0.703854	-0.248117	0.778304	-0.712497	-0.188038	0.798333	-0.726003	-0.201906	0.856850	-0.719627	-0.238707	0.542058	-0.697242	-0.211010	0.526567	-0.575314	-0.339280	0.333312	-0.693737	-0.353269	0.296318	-0.684603	-0.295247	0.278190	-0.700818	-0.288711	0.320792	-0.708002	-0.402883	0.144842	-0.622566	-0.271741	0.043740	-0.699802	-0.221400	0.053793	-0.635405	-0.195787	0.037848	-0.640608	
7	0.0350	-0.293565	1.549019	-0.514682	-0.250393	1.535142	-0.701368	-0.250585	1.543413	-0.333815	-0.141216	1.509817	-0.523195	-0.141969	1.030415	-0.401217	-0.153052	1.038566	-0.636097	-0.210476	1.112888	-0.347171	-0.217928	1.123403	-0.677197	-0.320232	1.094136	-0.470093	-0.322378	1.099856	-0.547821	-0.322494	1.093695	-0.508255	-0.242842	0.857214	-0.321932	-0.231800	0.799095	-0.315002	-0.167584	0.809698	-0.313463	-0.171622	0.870575	-0.320938	-0.235858	0.524417	-0.340448	-0.206653	0.515449	-0.463229	-0.301016	0.372970	-0.326260	-0.320450	0.335560	-0.336215	-0.263365	0.314103	-0.338568	-0.248475	0.351236	-0.333148	-0.382111	0.149392	-0.410648	-0.246797	0.041646	-0.348688	-0.200626	0.050363	-0.417070	-0.175279	0.038958	-0.412042	-0.271373	0.839432	-0.703465	-0.249105	0.782317	-0.712138	-0.189031	0.802191	-0.726007	-0.202694	0.860751	-0.719572	-0.240153	0.545607	-0.696967	-0.212398	0.530006	-0.574883	-0.338984	0.335927	-0.694140	-0.352589	0.298807	-0.685202	-0.294448	0.281236	-0.701653	-0.288322	0.323931	-0.708587	-0.401127	0.147645	-0.623927	-0.270969	0.044883	-0.700085	-0.220739	0.054643	-0.636228	-0.195555	0.038202	-0.641658	
